HIERARCHY
ROOT hip
{
	OFFSET 0.000000 0.000000 0.000000 
	CHANNELS 6 Xposition Yposition Zposition Xrotation Zrotation Yrotation
	JOINT abdomen
	{
		OFFSET 0.000000 3.402643 0.000000 
		CHANNELS 3 Xrotation Zrotation Yrotation
		JOINT chest
		{
			OFFSET 0.000000 8.438565 -0.680529 
			CHANNELS 3 Xrotation Zrotation Yrotation
			JOINT neck
			{
				OFFSET 0.000000 10.207942 -0.272212 
				CHANNELS 3 Xrotation Zrotation Yrotation
				JOINT head
				{
					OFFSET 0.000000 3.130431 0.000000 
					CHANNELS 3 Xrotation Zrotation Yrotation
					End Site
					{
						OFFSET 0.000000 3.130435 0.000000 
					}
				}
			}
			JOINT lCollar
			{
				OFFSET 3.470700 6.669187 -0.816635 
				CHANNELS 3 Yrotation Zrotation Xrotation
				JOINT lShldr
				{
					OFFSET 3.198488 0.000000 0.000000 
					CHANNELS 3 Zrotation Yrotation Xrotation
					JOINT lForeArm
					{
						OFFSET 10.139888 0.000000 0.000000 
						CHANNELS 3 Yrotation Zrotation Xrotation
						JOINT lHand
						{
							OFFSET 8.370511 0.000000 0.000000 
							CHANNELS 3 Zrotation Yrotation Xrotation
							End Site
							{
								OFFSET 4.083176 0.000000 0.000000 
							}
						}
					}
				}
			}
			JOINT rCollar
			{
				OFFSET -3.470700 6.669187 -0.816635 
				CHANNELS 3 Yrotation Zrotation Xrotation
				JOINT rShldr
				{
					OFFSET -3.198488 0.000000 0.000000 
					CHANNELS 3 Zrotation Yrotation Xrotation
					JOINT rForeArm
					{
						OFFSET -10.139888 0.000000 0.000000 
						CHANNELS 3 Yrotation Zrotation Xrotation
						JOINT rHand
						{
							OFFSET -8.370511 0.000000 0.000000 
							CHANNELS 3 Zrotation Yrotation Xrotation
							End Site
							{
								OFFSET -4.083176 0.000000 0.000000 
							}
						}
					}
				}
			}
		}
	}
	JOINT lThigh
	{
		OFFSET 5.308129 -1.633274 1.361059 
		CHANNELS 3 Xrotation Zrotation Yrotation
		JOINT lShin
		{
			OFFSET -2.041588 -20.007561 0.000000 
			CHANNELS 3 Xrotation Zrotation Yrotation
			JOINT lFoot
			{
				OFFSET 0.000000 -19.190928 -1.224953 
				CHANNELS 3 Xrotation Yrotation Zrotation
				End Site
				{
					OFFSET 0.000000 -2.449906 4.627600 
				}
			}
		}
	}
	JOINT rThigh
	{
		OFFSET -5.308129 -1.633274 1.361059 
		CHANNELS 3 Xrotation Zrotation Yrotation
		JOINT rShin
		{
			OFFSET 2.041588 -20.007561 0.000000 
			CHANNELS 3 Xrotation Zrotation Yrotation
			JOINT rFoot
			{
				OFFSET 0.000000 -19.190928 -1.224953 
				CHANNELS 3 Xrotation Yrotation Zrotation
				End Site
				{
					OFFSET 0.000000 -2.449906 4.627600 
				}
			}
		}
	}
}
MOTION
Frames: 20
Frame Time: 0.011111
-2.326779 51.698833 30.170118 0.820520 -1.398277 -0.567188 32.444599 -3.272327 0.986190 -37.226551 4.450203 0.258775 -15.009532 -4.518665 -4.968999 27.250622 8.880932 -9.507812 4.570630 -11.838743 2.144267 -66.062851 -23.125603 23.025669 -45.125134 6.419318 6.253324 8.524705 12.647240 -46.253307 -5.057420 16.551065 2.193941 56.410477 28.338745 27.894764 53.721684 -8.465718 9.689448 -8.534408 -12.637552 44.701031 -29.633175 2.676689 -18.319407 29.121607 -5.385710 -4.779738 -15.273708 9.416018 -0.686998 30.487608 -2.558279 11.159884 -0.106508 5.940862 0.683859 -14.788903 -1.918630 2.521246 
-2.216092 51.665825 30.690222 0.771580 -0.980979 -0.404037 32.431656 -3.639040 0.546890 -37.297798 4.616157 0.187062 -14.959938 -4.476829 -4.983574 27.403614 8.679870 -9.544993 4.570630 -11.838743 2.144267 -66.074982 -23.164135 22.951752 -44.970875 6.372792 6.193058 8.524705 12.647240 -46.390026 -5.057420 16.551065 2.193941 56.512909 27.737122 27.218027 53.131184 -8.356571 9.445573 -8.534408 -12.637552 44.046734 -29.031858 2.285365 -16.999138 29.531303 -5.371038 -4.812873 -14.270987 8.968328 -0.978817 31.028341 -2.927405 10.498799 -0.106481 5.940864 0.683858 -14.078955 -2.017125 2.530568 
-2.103404 51.604485 31.212318 0.732457 -0.574627 -0.124641 32.397522 -3.964486 0.136902 -37.377430 4.682399 0.116505 -14.804605 -4.515849 -5.004394 27.469580 8.721219 -9.577429 4.570630 -11.838743 2.144267 -66.030388 -23.254288 22.852232 -44.714409 6.298956 6.095683 8.524705 12.647240 -46.634163 -5.057420 16.551065 2.193941 56.680565 27.054050 26.373245 52.489441 -8.233011 9.173850 -8.534408 -12.637552 43.480324 -28.583668 1.837815 -15.739717 30.022749 -5.333889 -4.876397 -13.478046 8.394939 -1.210726 29.024988 -2.741727 9.728843 4.880862 5.993399 1.394813 -14.891602 -1.541803 2.590744 
-1.976046 51.574806 31.748426 0.664062 -0.040079 0.087432 32.358391 -4.357165 -0.344237 -37.339806 4.765379 0.041800 -14.592708 -4.675498 -5.047994 27.199587 8.947290 -9.670570 4.570630 -11.838743 2.144267 -66.050865 -23.439106 22.592785 -44.385075 6.192588 5.969440 8.524705 12.647240 -46.858776 -5.057420 16.551065 2.193941 56.792816 26.442142 25.717228 51.850368 -8.112194 8.913431 -8.534408 -12.637552 43.031109 -28.109640 1.241376 -14.633600 30.562731 -5.302227 -4.935837 -12.720955 8.031940 -1.431977 26.478743 -2.742283 8.897872 10.762187 5.966069 2.216803 -15.825097 -0.904283 2.702790 
-1.850688 51.548805 32.277859 0.615240 0.291169 0.169201 32.311382 -4.616504 -0.574339 -37.339806 4.761253 0.022710 -14.581669 -4.620411 -5.073081 27.072290 8.940346 -9.701824 4.570630 -11.838743 2.144267 -65.984322 -23.667215 22.437443 -43.965340 6.068295 5.814388 8.524705 12.647240 -47.024796 -5.057420 16.551065 2.193941 57.010075 25.746799 24.988047 51.408504 -8.014362 8.732337 -8.534408 -12.637552 42.767441 -27.669748 0.879872 -13.623940 31.109947 -5.282858 -5.008780 -11.991543 7.535625 -1.636021 24.729548 -2.829696 7.751519 14.859986 5.902254 2.813745 -15.652574 0.019552 2.952544 
-1.726998 51.524799 32.799290 0.625021 0.563070 0.308991 32.252033 -4.833352 -0.710293 -37.329235 4.709404 0.014731 -14.835162 -4.603822 -5.018735 27.302572 8.964538 -9.598249 4.570630 -11.838743 2.144267 -65.853928 -23.996168 22.537386 -43.555740 5.939867 5.662882 8.524705 12.647240 -47.239635 -5.057420 16.551065 2.193941 57.277790 25.058691 23.972561 50.854076 -7.898708 8.508354 -8.534408 -12.637552 42.640480 -27.239031 0.597126 -12.534462 31.608688 -5.253582 -5.074688 -11.209298 6.848053 -1.864710 23.047119 -2.939027 6.389263 18.656204 5.805363 3.319148 -14.898142 0.736305 3.197047 
-1.589638 51.526466 33.330059 0.576190 0.678453 0.514776 32.159786 -4.731448 -0.785496 -37.132061 4.622772 -0.000771 -14.987512 -4.894831 -4.950827 27.511185 9.217545 -9.494027 4.570630 -11.838743 2.144267 -65.917755 -24.413612 22.292923 -43.115757 5.798572 5.506209 8.524705 12.647240 -47.737682 -5.057420 16.551065 2.193941 57.383553 24.662216 23.032148 49.903469 -7.686491 8.120340 -8.534408 -12.637552 42.425636 -26.775307 0.381113 -11.656712 32.078705 -5.214686 -5.135262 -10.423068 6.230771 -2.069081 21.443699 -2.997567 4.870858 22.185675 5.679727 3.820443 -13.547436 1.216730 3.335636 
-1.461281 51.549133 33.835823 0.507813 0.706631 0.709536 32.151943 -4.539291 -0.801360 -37.140530 4.528688 -0.021497 -14.718380 -5.077686 -4.953540 27.225330 9.393316 -9.521122 4.570630 -11.838743 2.144267 -65.942345 -24.666695 22.008406 -42.748421 5.680055 5.364686 8.524705 12.647240 -48.186901 -5.057420 16.551065 2.193941 57.460709 24.120462 22.063478 49.069866 -7.492638 7.796556 -8.534408 -12.637552 41.683449 -26.300980 0.138004 -11.252029 32.466820 -5.194948 -5.184076 -9.964149 5.934476 -2.170269 19.774645 -3.046600 3.494267 25.644751 5.532842 4.278249 -11.942061 1.397718 3.400868 
-1.318919 51.579144 34.363258 0.498047 0.929401 0.936006 32.015968 -4.561223 -0.955905 -37.089832 4.403958 -0.040394 -14.512578 -5.065683 -5.033703 27.079773 9.395383 -9.679090 4.570630 -11.838743 2.144267 -65.924446 -24.872911 21.669577 -42.524071 5.607149 5.282919 8.524705 12.647240 -48.587292 -5.057420 16.551065 2.193941 57.670818 23.298206 20.749882 48.559345 -7.362133 7.587380 -8.534408 -12.637552 40.511578 -25.791767 -0.388894 -10.997719 32.875504 -5.165520 -5.241600 -9.738434 5.741216 -2.230415 18.056561 -3.417647 1.997861 28.946831 5.374763 4.693388 -10.182049 1.591923 3.441078 
-1.173891 51.597813 34.874687 0.390635 1.174090 1.111745 32.077831 -4.600101 -1.129123 -37.138237 4.357594 -0.074238 -14.508980 -4.936069 -5.118388 27.175362 9.071320 -9.878983 4.570630 -11.838743 2.144267 -65.945175 -25.057726 21.439674 -42.350704 5.548890 5.217908 8.524705 12.647240 -48.968155 -5.057420 16.551065 2.193941 57.785477 22.373129 19.732016 47.988194 -7.217689 7.359056 -8.534408 -12.637552 39.964706 -25.129557 -0.916681 -10.693880 33.282940 -5.145833 -5.291953 -9.606321 5.436544 -2.264067 16.379309 -3.923293 0.537731 32.172085 5.189072 5.117645 -8.072782 1.467471 3.392848 
-1.053202 51.594143 35.348778 0.166001 1.021708 1.272497 32.358131 -4.263884 -1.066535 -37.411465 4.284169 -0.109119 -14.564384 -4.785007 -5.132757 27.348225 8.695649 -9.928843 4.570630 -11.838743 2.144267 -65.978722 -25.290821 21.028774 -42.014568 5.437069 5.097791 8.524705 12.647240 -49.475964 -5.057420 16.551065 2.193941 57.869686 21.430021 19.003016 47.376827 -7.060997 7.125308 -8.534408 -12.637552 39.749859 -24.502726 -0.974894 -10.506652 33.652218 -5.111558 -5.343615 -9.561860 5.091412 -2.322741 14.858057 -3.963427 -0.381968 35.274303 4.993803 5.521700 -5.583229 0.554677 3.231785 
-0.924177 51.605476 35.838207 -0.029293 0.996778 1.337551 32.516075 -4.048663 -1.040591 -37.439716 4.201545 -0.123296 -14.594736 -4.817988 -5.091741 27.466084 8.601305 -9.879308 4.570630 -11.838743 2.144267 -66.010429 -25.660919 20.725025 -41.709187 5.334839 4.995739 8.524705 12.647240 -49.778694 -5.057420 16.551065 2.193941 57.906132 20.684921 18.552832 46.930946 -6.936882 6.951446 -8.534408 -12.637552 39.583847 -23.724463 -1.131435 -10.347648 33.780979 -5.106896 -5.364021 -9.619219 4.850919 -2.370918 13.239796 -4.218038 -1.103561 38.358086 4.778265 5.880118 -2.871315 -0.339302 3.130328 
-0.754812 51.652824 36.338638 -0.107427 1.389096 1.266929 32.513397 -4.241296 -1.142341 -37.233280 4.142629 -0.105545 -14.720649 -4.764801 -5.065783 27.478086 8.416730 -9.858333 4.570630 -11.838743 2.144267 -66.080788 -26.175861 20.299793 -41.343204 5.208032 4.861264 8.524705 12.647240 -50.384163 -5.057420 16.551065 2.193941 58.020161 20.248859 17.672907 46.311340 -6.769265 6.714336 -8.534408 -12.637552 39.115089 -22.753731 -1.784870 -10.291589 33.721256 -5.110126 -5.359848 -10.035187 4.804914 -2.313872 11.314973 -5.086287 -1.789013 41.414063 4.533463 6.247259 -0.232888 -1.160542 3.048638 
-0.590447 51.707165 36.822067 -0.136785 2.092448 1.088761 32.519379 -4.831614 -1.389624 -37.185001 4.196582 -0.083554 -14.896544 -4.774809 -5.029820 27.770185 8.282019 -9.830709 4.570630 -11.838743 2.144267 -66.139183 -26.486008 20.270813 -41.109936 5.131115 4.782649 8.524705 12.647240 -50.569710 -5.057420 16.551065 2.193941 58.059914 19.728525 16.835684 45.538044 -6.549860 6.419405 -8.534408 -12.637552 38.519390 -21.617613 -2.753018 -10.424953 33.383091 -5.136173 -5.297964 -10.663071 5.025533 -2.215854 9.188629 -6.317976 -2.371675 44.530766 4.285997 6.598956 2.683796 -2.008742 3.039533 
-0.451420 51.745506 37.291153 -0.224815 2.640526 0.966222 32.620655 -5.268656 -1.642113 -37.245541 4.322658 -0.104905 -14.975053 -4.768857 -4.975041 27.919710 8.076238 -9.752441 4.570630 -11.838743 2.144267 -66.253845 -26.734776 19.970661 -41.028843 5.102973 4.751133 8.524705 12.647240 -50.813850 -5.057420 16.551065 2.193941 57.985977 19.125927 16.254564 44.869343 -6.353080 6.164457 -8.534408 -12.637552 37.728371 -20.412905 -3.522938 -10.647829 32.885712 -5.165581 -5.232790 -11.201822 5.300289 -2.123191 7.137530 -7.333272 -2.750955 47.613182 4.002472 6.922898 5.506920 -3.049958 3.070602 
-0.319728 51.787182 37.760242 -0.234684 3.040280 0.768826 32.626759 -5.593353 -1.738531 -37.157269 4.317332 -0.077144 -15.101490 -4.714601 -4.909362 27.975174 7.869224 -9.654799 4.570630 -11.838743 2.144267 -66.265686 -27.096058 19.861931 -40.998463 5.091248 4.734885 8.524705 12.647240 -50.989635 -5.057420 16.551065 2.193941 58.042530 18.722105 15.655868 44.161297 -6.139750 5.897432 -8.534408 -12.637552 37.035015 -19.297710 -4.078322 -10.726130 32.336525 -5.204448 -5.185009 -11.545120 5.597239 -2.036646 5.008806 -8.192517 -2.818579 50.669617 3.709481 7.237709 8.046009 -4.121606 3.165567 
-0.196371 51.849194 38.229332 -0.225029 3.537196 0.513490 32.641552 -6.047940 -1.882998 -37.079479 4.361710 -0.050676 -15.210979 -4.803194 -4.857199 27.908525 7.897339 -9.600679 4.570630 -11.838743 2.144267 -66.248405 -27.468523 19.918232 -40.947781 5.074729 4.719705 8.524705 12.647240 -51.243542 -5.057420 16.551065 2.193941 58.090347 18.338285 15.193595 43.526314 -5.944170 5.669714 -8.534408 -12.637552 36.615089 -18.102892 -4.599122 -10.508772 31.758432 -5.243263 -5.095535 -11.912747 5.456520 -2.015756 2.761617 -9.106446 -2.739295 53.661438 3.416357 7.543837 10.568129 -5.721401 3.421610 
-0.092685 51.892872 38.686089 -0.323073 4.064194 0.289664 32.782013 -6.569139 -2.119935 -37.110420 4.472835 -0.047269 -15.135228 -4.900482 -4.836897 27.811029 8.002698 -9.569401 4.570630 -11.838743 2.144267 -66.211945 -27.851690 19.880821 -40.825813 5.028778 4.673564 8.524705 12.647240 -51.438850 -5.057420 16.551065 2.193941 58.161316 17.835936 14.817590 43.014774 -5.775388 5.469972 -8.534408 -12.637552 36.185406 -16.784410 -5.106236 -10.084671 31.169411 -5.282829 -5.014005 -12.221818 5.123491 -2.040368 0.624071 -10.045614 -2.696386 56.570812 3.113486 7.825557 13.384725 -7.925148 3.924400 
-0.013003 51.952881 39.128838 -0.391808 4.452821 -0.059625 32.970757 -7.031701 -2.280571 -37.250381 4.664350 -0.049100 -15.049505 -4.953580 -4.767992 27.729292 7.986591 -9.441030 4.570630 -11.838743 2.144267 -66.134315 -28.051010 20.409513 -40.876472 5.045393 4.688658 8.524705 12.647240 -50.979870 -5.057420 16.551065 2.193941 58.208694 17.442352 14.257962 42.372105 -5.568289 5.240982 -8.534408 -12.637552 35.335796 -15.637971 -5.377694 -9.513221 30.471676 -5.311775 -4.940084 -12.239786 4.920942 -2.077067 -1.552617 -10.708674 -2.397587 59.340416 2.812603 8.054770 15.949610 -10.809488 4.818886 
0.055011 52.051231 39.560585 -0.372327 4.675612 -0.342756 33.040546 -7.327458 -2.347156 -37.467518 4.767863 -0.049239 -14.833991 -4.871615 -4.735882 27.597656 7.896517 -9.355351 4.570630 -11.838743 2.144267 -66.008469 -28.115711 20.629454 -40.927479 5.069946 4.719900 8.524705 12.647240 -50.921276 -5.057420 16.551065 2.193941 58.246372 16.873232 13.910432 41.750824 -5.359120 5.017610 -8.534408 -12.637552 34.701031 -14.622757 -5.456214 -8.944319 29.752802 -5.346126 -4.855034 -12.112154 4.602897 -2.133986 -3.778144 -11.068892 -2.021706 61.959194 2.500073 8.290774 17.757813 -14.237929 6.090869 
